<svg aria-hidden="true" style="width:0;height:0;position:absolute;overflow:hidden" xmlns="http://www.w3.org/2000/svg"><defs><symbol id="icon-arrow-left" viewBox="0 0 32 32"><path stroke-linejoin="round" stroke-linecap="round" stroke-width="2.667" d="M25.333 16H6.666M16 25.334l-9.333-9.333L16 6.668"/></symbol><symbol id="icon-arrow-right" viewBox="0 0 32 32"><path stroke-linejoin="round" stroke-linecap="round" stroke-width="2.667" d="M6.667 16h18.667M16 25.334l9.333-9.333L16 6.668"/></symbol><symbol id="close" viewBox="0 0 32 32"><path d="m26.667 7.303-1.97-1.97-7.808 7.808-7.808-7.808-1.97 1.97 7.808 7.808-7.808 7.808 1.97 1.97 7.808-7.808 7.808 7.808 1.97-1.97-7.808-7.808 7.808-7.808z"/></symbol><symbol id="icon-film" viewBox="0 0 32 32"><path fill="none" stroke="#818181" style="stroke:var(--color1,#818181)" stroke-linejoin="round" stroke-linecap="round" stroke-width="2.667" d="M26.427 2.667H5.574a2.907 2.907 0 0 0-2.907 2.907v20.853a2.907 2.907 0 0 0 2.907 2.907h20.853a2.907 2.907 0 0 0 2.907-2.907V5.574a2.907 2.907 0 0 0-2.907-2.907zM9.333 2.667v26.667M22.667 2.667v26.667M2.667 16h26.667M2.667 9.333h6.667M2.667 22.667h6.667M22.667 22.667h6.667M22.667 9.333h6.667"/></symbol><symbol id="icon-orang-heart" viewBox="0 0 32 32"><path fill="#ff6b08" style="fill:var(--color2,#ff6b08)" d="m16 30.583-2.24-2.24C5.44 20.983 0 16.023 0 9.943c0-4.96 3.84-8.8 8.8-8.8 2.72 0 5.44 1.28 7.2 3.36 1.76-2.08 4.48-3.36 7.2-3.36 4.96 0 8.8 3.84 8.8 8.8 0 6.08-5.44 11.04-13.76 18.4L16 30.583z"/></symbol><symbol id="icon-search" viewBox="0 0 32 32"><path fill="none" stroke="#fff" style="stroke:var(--color3,#fff)" stroke-linejoin="round" stroke-linecap="round" stroke-width="2.667" d="M14.667 25.333c5.891 0 10.667-4.776 10.667-10.667S20.558 3.999 14.667 3.999 4 8.775 4 14.666s4.776 10.667 10.667 10.667zM28 28.001l-5.8-5.8"/><symbol id="icon-sun" viewBox="0 0 32 32"><path d="M23.909 16a7.91 7.91 0 1 1-15.82 0 7.91 7.91 0 0 1 15.82 0zM15.452 25.439h1.095V32h-1.095v-6.561zM15.452 0h1.095v6.561h-1.095V0zM5.074 27.701l-.775-.775 4.639-4.639.775.775-4.639 4.639zM23.062 9.713l-.775-.775 4.639-4.639.775.775-4.639 4.639zM0 15.452h6.561v1.095H0v-1.095zM25.439 15.452H32v1.095h-6.561v-1.095zM8.938 9.713 4.299 5.074l.775-.775 4.639 4.639-.775.775zM26.926 27.701l-4.639-4.639.775-.775 4.639 4.639-.775.775zM20.09 27.306l-.983-2.373 1.012-.419.983 2.373-1.012.419zM11.881 7.487l-.983-2.373 1.012-.419.983 2.373-1.012.419zM11.91 27.306l-1.012-.419.983-2.373 1.012.419-.983 2.373zM20.119 7.486l-1.012-.419.983-2.373 1.012.419-.983 2.373zM5.113 21.102l-.419-1.012 2.373-.983.419 1.012-2.373.983zM24.932 12.893l-.419-1.012 2.373-.983.419 1.012-2.373.983zM7.067 12.893l-2.373-.983.419-1.012 2.373.983-.419 1.012zM26.887 21.102l-2.373-.983.419-1.012 2.373.983-.419 1.012z"/></symbol><symbol id="icon-moon" viewBox="0 0 32 32"><path d="m22.518 11.443-2.782.587 1.905 2.11-.301 2.827 2.595-1.16 2.595 1.16-.301-2.827 1.905-2.11-2.782-.587-1.418-2.464zM30.945 22.905l-1.822-.385-.929-1.614-.929 1.614-1.822.385 1.248 1.382-.197 1.852 1.7-.76 1.7.76-.198-1.852z"/><path d="M15.332 16c0-6.271 3.608-11.698 8.862-14.322A15.935 15.935 0 0 0 17.056 0c-8.837 0-16 7.163-16 16s7.163 16 16 16c2.566 0 4.989-.605 7.138-1.678-5.253-2.623-8.862-8.051-8.862-14.322z"/></symbol></symbol></defs></svg>