<svg aria-hidden="true" style="position: absolute; width: 0; height: 0; overflow: hidden;" version="1.1" xmlns="http://www.w3.org/2000/svg" xmlns:xlink="http://www.w3.org/1999/xlink">
<defs>
<symbol id="icon-arrow-left" viewBox="0 0 32 32">
<path stroke-linejoin="round" stroke-linecap="round" stroke-miterlimit="4" stroke-width="2.6667" d="M25.333 16h-18.667"></path>
<path stroke-linejoin="round" stroke-linecap="round" stroke-miterlimit="4" stroke-width="2.6667" d="M16 25.334l-9.333-9.333 9.333-9.333"></path>
</symbol>
<symbol id="icon-arrow-right" viewBox="0 0 32 32">
<path stroke-linejoin="round" stroke-linecap="round" stroke-miterlimit="4" stroke-width="2.6667" d="M6.667 16h18.667"></path>
<path stroke-linejoin="round" stroke-linecap="round" stroke-miterlimit="4" stroke-width="2.6667" d="M16 25.334l9.333-9.333-9.333-9.333"></path>
</symbol>
<symbol id="close" viewBox="0 0 32 32">
<path d="M26.667 7.303l-1.97-1.97-7.808 7.808-7.808-7.808-1.97 1.97 7.808 7.808-7.808 7.808 1.97 1.97 7.808-7.808 7.808 7.808 1.97-1.97-7.808-7.808 7.808-7.808z"></path>
</symbol> 
<symbol id="icon-film" viewBox="0 0 32 32">
<path fill="none" stroke="#818181" style="stroke: var(--color1, #818181)" stroke-linejoin="round" stroke-linecap="round" stroke-miterlimit="4" stroke-width="2.6667" d="M26.427 2.667h-20.853c-1.605 0-2.907 1.301-2.907 2.907v20.853c0 1.605 1.301 2.907 2.907 2.907h20.853c1.605 0 2.907-1.301 2.907-2.907v-20.853c0-1.605-1.301-2.907-2.907-2.907z"></path>
<path fill="none" stroke="#818181" style="stroke: var(--color1, #818181)" stroke-linejoin="round" stroke-linecap="round" stroke-miterlimit="4" stroke-width="2.6667" d="M9.333 2.667v26.667"></path>
<path fill="none" stroke="#818181" style="stroke: var(--color1, #818181)" stroke-linejoin="round" stroke-linecap="round" stroke-miterlimit="4" stroke-width="2.6667" d="M22.667 2.667v26.667"></path>
<path fill="none" stroke="#818181" style="stroke: var(--color1, #818181)" stroke-linejoin="round" stroke-linecap="round" stroke-miterlimit="4" stroke-width="2.6667" d="M2.667 16h26.667"></path>
<path fill="none" stroke="#818181" style="stroke: var(--color1, #818181)" stroke-linejoin="round" stroke-linecap="round" stroke-miterlimit="4" stroke-width="2.6667" d="M2.667 9.333h6.667"></path>
<path fill="none" stroke="#818181" style="stroke: var(--color1, #818181)" stroke-linejoin="round" stroke-linecap="round" stroke-miterlimit="4" stroke-width="2.6667" d="M2.667 22.667h6.667"></path>
<path fill="none" stroke="#818181" style="stroke: var(--color1, #818181)" stroke-linejoin="round" stroke-linecap="round" stroke-miterlimit="4" stroke-width="2.6667" d="M22.667 22.667h6.667"></path>
<path fill="none" stroke="#818181" style="stroke: var(--color1, #818181)" stroke-linejoin="round" stroke-linecap="round" stroke-miterlimit="4" stroke-width="2.6667" d="M22.667 9.333h6.667"></path>
</symbol>
<symbol id="icon-orang-heart" viewBox="0 0 32 32">
<path fill="#ff6b08" style="fill: var(--color2, #ff6b08)" d="M16 30.583l-2.24-2.24c-8.32-7.36-13.76-12.32-13.76-18.4 0-4.96 3.84-8.8 8.8-8.8 2.72 0 5.44 1.28 7.2 3.36 1.76-2.080 4.48-3.36 7.2-3.36 4.96 0 8.8 3.84 8.8 8.8 0 6.080-5.44 11.040-13.76 18.4l-2.24 2.24z"></path>
</symbol>
<symbol id="icon-search" viewBox="0 0 32 32">
<path fill="none" stroke="#fff" style="stroke: var(--color3, #fff)" stroke-linejoin="round" stroke-linecap="round" stroke-miterlimit="4" stroke-width="2.6667" d="M14.667 25.333c5.891 0 10.667-4.776 10.667-10.667s-4.776-10.667-10.667-10.667c-5.891 0-10.667 4.776-10.667 10.667s4.776 10.667 10.667 10.667z"></path>
<path fill="none" stroke="#fff" style="stroke: var(--color3, #fff)" stroke-linejoin="round" stroke-linecap="round" stroke-miterlimit="4" stroke-width="2.6667" d="M28 28.001l-5.8-5.8"></path>
<symbol id="icon-sun" viewBox="0 0 32 32">
<path  d="M23.909 16c0 4.368-3.541 7.91-7.91 7.91s-7.91-3.541-7.91-7.91c0-4.368 3.541-7.91 7.91-7.91s7.91 3.541 7.91 7.91z"></path>
<path d="M15.452 25.439h1.095v6.561h-1.095v-6.561z"></path>
<path d="M15.452 0h1.095v6.561h-1.095v-6.561z"></path>
<path d="M5.074 27.701l-0.775-0.775 4.639-4.639 0.775 0.775-4.639 4.639z"></path>
<path d="M23.062 9.713l-0.775-0.775 4.639-4.639 0.775 0.775-4.639 4.639z"></path>
<path d="M0 15.452h6.561v1.095h-6.561v-1.095z"></path>
<path d="M25.439 15.452h6.561v1.095h-6.561v-1.095z"></path>
<path d="M8.938 9.713l-4.639-4.639 0.775-0.775 4.639 4.639-0.775 0.775z"></path>
<path d="M26.926 27.701l-4.639-4.639 0.775-0.775 4.639 4.639-0.775 0.775z"></path>
<path d="M20.090 27.306l-0.983-2.373 1.012-0.419 0.983 2.373-1.012 0.419z"></path>
<path d="M11.881 7.487l-0.983-2.373 1.012-0.419 0.983 2.373-1.012 0.419z"></path>
<path d="M11.91 27.306l-1.012-0.419 0.983-2.373 1.012 0.419-0.983 2.373z"></path>
<path d="M20.119 7.486l-1.012-0.419 0.983-2.373 1.012 0.419-0.983 2.373z"></path>
<path d="M5.113 21.102l-0.419-1.012 2.373-0.983 0.419 1.012-2.373 0.983z"></path>
<path d="M24.932 12.893l-0.419-1.012 2.373-0.983 0.419 1.012-2.373 0.983z"></path>
<path d="M7.067 12.893l-2.373-0.983 0.419-1.012 2.373 0.983-0.419 1.012z"></path>
<path d="M26.887 21.102l-2.373-0.983 0.419-1.012 2.373 0.983-0.419 1.012z"></path>
</symbol>
<symbol id="icon-moon" viewBox="0 0 32 32">
<path d="M22.518 11.443l-2.782 0.587 1.905 2.11-0.301 2.827 2.595-1.16 2.595 1.16-0.301-2.827 1.905-2.11-2.782-0.587-1.418-2.464z"></path>
<path d="M30.945 22.905l-1.822-0.385-0.929-1.614-0.929 1.614-1.822 0.385 1.248 1.382-0.197 1.852 1.7-0.76 1.7 0.76-0.198-1.852z"></path>
<path d="M15.332 16c0-6.271 3.608-11.698 8.862-14.322-2.149-1.073-4.573-1.678-7.138-1.678-8.837 0-16 7.163-16 16s7.163 16 16 16c2.566 0 4.989-0.605 7.138-1.678-5.253-2.623-8.862-8.051-8.862-14.322z"></path>
</symbol>
</symbol>
</defs>
</svg>
